# xmcd
#
# Track frame offsets: 
#        150
#        12845
#        27505
#        45475
#        56202
#        76597
#        97797
#        116677
#        133437
#        147870
#        160110
#
# Disc length: 2324 seconds
#
# Revision: 3
# Processed by: cddbd v1.5.2PL0 Copyright (c) Steve Scherf et al.
# Submitted via: ExactAudioCopyFreeDBPlugin 1.0
#
DISCID=8909120b
DTITLE=Pat Benatar - True Love
DYEAR=1991
DGENRE=Blues
TTITLE0=Bloodshot Eyes
TTITLE1=Payin' The Cost To Be The Boss
TTITLE2=So Long
TTITLE3=I've Got Papers On You
TTITLE4=I Feel Lucky
TTITLE5=True Love
TTITLE6=The Good Life
TTITLE7=Evening
TTITLE8=I Get Evil
TTITLE9=Don't Happen No More
TTITLE10=Please Come Home For Christmas
EXTD=
EXTT0=
EXTT1=
EXTT2=
EXTT3=
EXTT4=
EXTT5=
EXTT6=
EXTT7=
EXTT8=
EXTT9=
EXTT10=
PLAYORDER=
